<?xml version="1.0" encoding="UTF-8"?>
<svg width="66px" height="51px" viewBox="0 0 66 51" version="1.1" xmlns="http://www.w3.org/2000/svg" xmlns:xlink="http://www.w3.org/1999/xlink">
    <!-- Generator: sketchtool 63.1 (101010) - https://sketch.com -->
    <title>8E91D8C1-EA2E-4C4A-AF2E-EF90A3CAB497</title>
    <desc>Created with sketchtool.</desc>
    <defs>
        <polygon id="path-1" points="0.237744 0.1506 45.926544 0.1506 45.926544 45.84 0.237744 45.84"></polygon>
        <polygon id="path-3" points="0.10392 0.1344 31.5588 0.1344 31.5588 35.928864 0.10392 35.928864"></polygon>
    </defs>
    <g id="Page-1" stroke="none" stroke-width="1" fill="none" fill-rule="evenodd">
        <g id="Sous-menu-(1)" transform="translate(-67.000000, -66.000000)">
            <g id="TRANSPORTS" transform="translate(67.000000, 66.500000)">
                <g id="Group-3" transform="translate(7.200000, 3.945600)">
                    <mask id="mask-2" fill="white">
                        <use xlink:href="#path-1"></use>
                    </mask>
                    <g id="Clip-2"></g>
                    <path d="M0.237744,22.99524 C0.237744,35.61204 10.465824,45.84012 23.082384,45.84012 C35.698944,45.84012 45.926544,35.61204 45.926544,22.99524 C45.926544,10.37892 35.698944,0.1506 23.082384,0.1506 C10.465824,0.1506 0.237744,10.37892 0.237744,22.99524" id="Fill-1" fill="#91D5EE" mask="url(#mask-2)"></path>
                </g>
                <path d="M36.070632,32.199744 C35.803272,34.025904 34.476552,35.520624 32.739672,36.034464 C32.786232,36.216624 32.811192,36.407424 32.811192,36.603744 L32.811192,38.448864 C32.811192,39.717744 31.773192,40.755504 30.504552,40.755504 L30.415752,40.755504 C29.147112,40.755504 28.108872,39.717744 28.108872,38.448864 L28.108872,36.603744 C28.108872,36.475104 28.119672,36.349104 28.140072,36.225984 L26.988552,36.225984 C26.562552,37.164864 26.325432,38.208144 26.325432,39.306384 C26.325432,43.427424 29.666232,46.768464 33.787512,46.768464 C37.908552,46.768464 41.250072,43.427424 41.250072,39.306384 C41.250072,35.981424 39.075192,33.164304 36.070632,32.199744" id="Fill-4" fill="#529D1D"></path>
                <path d="M58.19328,31.843968 C54.07224,31.843968 50.7312,35.185008 50.7312,39.306288 C50.7312,43.427328 54.07224,46.768368 58.19328,46.768368 C62.31456,46.768368 65.65536,43.427328 65.65536,39.306288 C65.65536,35.185008 62.31456,31.843968 58.19328,31.843968" id="Fill-6" fill="#90BC1F"></path>
                <path d="M54.421032,22.234104 L53.036712,24.665544 C53.519592,24.940104 53.875992,25.451304 53.966472,25.999224 C54.057432,26.546904 53.885832,27.145464 53.517672,27.561384 C53.396232,27.698184 53.257992,27.815064 53.106072,27.913704 C53.062152,28.967784 52.946232,30.004104 52.764072,31.016424 C53.908152,30.770904 54.892152,30.229704 55.612632,29.415624 C56.539032,28.368744 56.955672,26.920344 56.726712,25.541304 C56.498232,24.162024 55.635912,22.925784 54.421032,22.234104" id="Fill-8" fill="#009ADE"></path>
                <path d="M43.589376,26.332752 C42.524976,26.332752 41.692896,26.791152 41.294736,27.626592 C40.824816,28.612992 41.252736,29.566032 41.435136,29.972832 C42.681456,32.749872 44.198016,35.421312 45.944016,37.915392 L46.878096,34.254672 C45.870816,32.635872 44.963616,30.952032 44.167536,29.222592 C44.960256,29.402592 45.751776,29.707632 46.583856,30.028032 C46.993296,30.185712 47.409696,30.346512 47.837136,30.495792 L48.531936,27.773232 C48.223056,27.661392 47.910096,27.540672 47.589696,27.417312 C46.563456,27.022032 45.502176,26.613072 44.338416,26.402832 C44.078496,26.355792 43.828176,26.332752 43.589376,26.332752 M53.106096,27.913632 C52.605696,28.238832 51.958896,28.366272 51.294816,28.366272 C51.285936,28.366272 51.276816,28.366272 51.267936,28.366272 L50.561376,31.135152 C50.806656,31.157232 51.048576,31.168032 51.285936,31.168032 C51.800976,31.168032 52.295856,31.116912 52.764096,31.016592 C52.946256,30.004032 53.062176,28.967712 53.106096,27.913632" id="Fill-10" fill="#0081CF"></path>
                <path d="M51.342744,14.653968 L49.557624,14.674608 C50.076024,15.487728 50.544504,16.335888 50.958504,17.214528 C51.351144,15.752448 51.343944,14.721408 51.342744,14.653968" id="Fill-12" fill="#009ADE"></path>
                <path d="M49.557504,14.674704 L48.545184,14.686464 C48.545904,15.007584 48.445104,22.575984 37.994544,24.712464 L38.554704,27.453504 C45.165984,26.102304 48.292704,22.742784 49.751904,20.162544 C50.351664,19.101984 50.725584,18.082464 50.958624,17.214624 C50.544384,16.335984 50.075904,15.487824 49.557504,14.674704" id="Fill-14" fill="#0081CF"></path>
                <path d="M45.266112,10.599864 C45.266112,12.274104 46.623312,13.631304 48.297552,13.631304 C49.971792,13.631304 51.329232,12.274104 51.329232,10.599864 C51.329232,8.925384 49.971792,7.568424 48.297552,7.568424 C46.623312,7.568424 45.266112,8.925384 45.266112,10.599864" id="Fill-16" fill="#5E6180"></path>
                <path d="M47.930256,41.447832 C47.360016,42.140472 46.749696,42.799512 46.103136,43.420392 L47.345856,43.737432 L47.930256,41.447832" id="Fill-18" fill="#009ADE"></path>
                <path d="M49.375872,24.46608 L48.531792,27.77328 C48.935712,27.91968 49.332912,28.05144 49.732272,28.15632 C50.210832,28.28208 50.744112,28.36344 51.268032,28.36608 L52.086672,25.15776 L49.375872,24.46608 M47.837232,30.49584 L46.878192,34.25472 C47.342352,35.00112 47.828352,35.73384 48.334032,36.45072 L46.048272,38.06376 C46.013232,38.01432 45.978672,37.96512 45.943872,37.91544 L44.634912,43.04592 L46.102992,43.42032 C46.749792,42.79944 47.360112,42.14064 47.930352,41.44776 L50.561232,31.1352 C50.060832,31.0908 49.546032,31.00032 49.021632,30.86256 C48.616512,30.75624 48.222192,30.63048 47.837232,30.49584" id="Fill-20" fill="#0081CF"></path>
                <path d="M48.531888,27.773208 L47.837088,30.495768 C48.222288,30.630408 48.616608,30.756168 49.021728,30.862728 C49.546128,31.000248 50.060928,31.090728 50.561328,31.135128 L51.267888,28.366248 C50.744208,28.363368 50.210928,28.282008 49.732368,28.156488 C49.333008,28.051608 48.935808,27.919608 48.531888,27.773208 M46.878048,34.254648 L45.943968,37.915368 C45.978528,37.965048 46.013328,38.014248 46.048128,38.063688 L48.334128,36.450648 C47.828208,35.733768 47.342448,35.001048 46.878048,34.254648" id="Fill-22" fill="#004EB4"></path>
                <path d="M10.279296,40.7556 L10.367856,40.7556 C11.636256,40.7556 12.674496,39.71784 12.674496,38.44896 L12.674496,36.6036 C12.674496,35.33472 11.636256,34.29648 10.367856,34.29648 L10.279296,34.29648 C9.010416,34.29648 7.972656,35.33472 7.972656,36.6036 L7.972656,38.44896 C7.972656,39.71784 9.010416,40.7556 10.279296,40.7556" id="Fill-24" fill="#5E6180"></path>
                <path d="M30.415872,40.7556 L30.504432,40.7556 C31.773072,40.7556 32.811072,39.71784 32.811072,38.44896 L32.811072,36.6036 C32.811072,35.33472 31.773072,34.29648 30.504432,34.29648 L30.415872,34.29648 C29.147232,34.29648 28.108992,35.33472 28.108992,36.6036 L28.108992,38.44896 C28.108992,39.71784 29.147232,40.7556 30.415872,40.7556" id="Fill-26" fill="#5E6180"></path>
                <path d="M25.212264,34.296576 L15.571464,34.296576 C14.854824,34.296576 14.268504,33.710256 14.268504,32.993616 C14.268504,32.276736 14.854824,31.690656 15.571464,31.690656 L25.212264,31.690656 C25.928904,31.690656 26.515464,32.276736 26.515464,32.993616 C26.515464,33.710256 25.928904,34.296576 25.212264,34.296576" id="Fill-28" fill="#FFFFFF"></path>
                <path d="M1.635552,14.83572 C0.736272,14.83572 0.000192,15.5718 0.000192,16.47156 L0.000192,19.743 C0.000192,20.64276 0.736272,21.3786 1.635552,21.3786 C1.748832,21.3786 1.859232,21.36684 1.966032,21.34476 C2.342112,21.42828 4.630032,21.98556 4.630032,23.17884 L4.630032,21.66876 C3.684192,21.45204 3.070032,20.90316 2.917152,20.7546 C3.138192,20.47572 3.270912,20.12436 3.270912,19.743 L3.270912,16.47156 C3.270912,15.5718 2.535312,14.83572 1.635552,14.83572" id="Fill-30" fill="#009ADE"></path>
                <g id="Group-34" transform="translate(4.560000, 0.105600)">
                    <mask id="mask-4" fill="white">
                        <use xlink:href="#path-3"></use>
                    </mask>
                    <g id="Clip-33"></g>
                    <path d="M26.85336,0.134304 L4.81056,0.134304 C2.22192,0.134304 0.10392,2.252544 0.10392,4.841424 L0.10392,31.413744 C0.10392,33.542064 1.536,35.352624 3.48432,35.928864 C3.60888,35.441664 3.88992,35.015184 4.26984,34.706544 C3.36936,32.252784 2.87784,29.601264 2.87784,26.835264 C2.87784,25.755504 2.95272,24.693024 3.09768,23.653344 C2.90472,23.424864 2.78808,23.130384 2.78808,22.809744 L2.78808,6.682944 C2.78808,5.962464 3.378,5.372544 4.09824,5.372544 L17.88,5.372544 C20.32584,4.478544 22.96704,3.990624 25.72224,3.990624 C27.73968,3.990624 29.69568,4.252224 31.5588,4.743264 C31.50624,2.199264 29.40912,0.134304 26.85336,0.134304" id="Fill-32" fill="#009ADE" mask="url(#mask-4)"></path>
                </g>
                <path d="M30.282264,4.096296 C27.527064,4.096296 24.885864,4.584216 22.440024,5.477976 L32.125224,5.477976 C32.846184,5.477976 33.436104,6.067896 33.436104,6.788616 L33.436104,22.915416 C33.436104,23.636376 32.846184,24.225816 32.125224,24.225816 L8.658264,24.225816 C8.258184,24.225816 7.898424,24.043896 7.657464,23.758776 C7.512744,24.798456 7.437624,25.861176 7.437624,26.940936 C7.437624,29.706936 7.929384,32.358456 8.829864,34.812216 C9.226824,34.490136 9.731544,34.296456 10.279224,34.296456 L10.367784,34.296456 C11.507784,34.296456 12.461784,35.135256 12.643464,36.226056 L26.988504,36.226056 C28.161384,33.641256 30.764664,31.843896 33.787464,31.843896 C34.584024,31.843896 35.350824,31.968696 36.070584,32.199816 C36.103224,31.977336 36.120024,31.750296 36.120024,31.519176 L36.120024,23.178936 C36.120024,21.965256 38.486664,21.409416 38.802504,21.341016 C38.914104,21.365256 39.029544,21.378456 39.148344,21.378456 C40.047864,21.378456 40.783944,20.642616 40.783944,19.743096 L40.783944,16.471416 C40.783944,15.571896 40.047864,14.835816 39.148344,14.835816 C38.248584,14.835816 37.512504,15.571896 37.512504,16.471416 L37.512504,19.743096 C37.512504,20.115816 37.640184,20.459496 37.852584,20.735256 C37.742184,20.846376 37.114584,21.441096 36.120024,21.668856 L36.120024,4.946856 C36.120024,4.913976 36.119544,4.881576 36.118824,4.848696 C34.255704,4.357656 32.299704,4.096296 30.282264,4.096296 M15.571464,34.296456 C14.854824,34.296456 14.268504,33.710376 14.268504,32.993496 C14.268504,32.276856 14.854824,31.690536 15.571464,31.690536 L25.212264,31.690536 C25.928904,31.690536 26.515464,32.276856 26.515464,32.993496 C26.515464,33.710376 25.928904,34.296456 25.212264,34.296456 L15.571464,34.296456" id="Fill-35" fill="#0081CF"></path>
                <path d="M33.787584,31.843968 C30.764544,31.843968 28.161504,33.641328 26.988624,36.225888 L28.140144,36.225888 C28.321824,35.135088 29.275584,34.296528 30.415824,34.296528 L30.504384,34.296528 C31.576944,34.296528 32.484384,35.038608 32.739744,36.034368 C34.476624,35.520768 35.803104,34.026048 36.070704,32.199648 C35.350944,31.968768 34.583904,31.843968 33.787584,31.843968" id="Fill-37" fill="#005F19"></path>
                <path d="M10.367904,34.296576 L10.279344,34.296576 C9.731664,34.296576 9.226704,34.490256 8.829984,34.812096 C8.450064,35.120736 8.169024,35.547216 8.044224,36.034416 C8.465184,36.158976 8.910624,36.225936 9.370704,36.225936 L12.643344,36.225936 C12.461904,35.135136 11.507904,34.296576 10.367904,34.296576" id="Fill-39" fill="#003B6F"></path>
                <path d="M30.504456,34.296576 L30.415896,34.296576 C29.275656,34.296576 28.321656,35.135136 28.139976,36.225936 L31.413336,36.225936 C31.873416,36.225936 32.318616,36.158976 32.739576,36.034416 C32.484456,35.038416 31.577016,34.296576 30.504456,34.296576" id="Fill-41" fill="#003B6F"></path>
                <path d="M25.212264,31.69056 L15.571464,31.69056 C14.854824,31.69056 14.268504,32.27688 14.268504,32.99352 C14.268504,33.7104 14.854824,34.29648 15.571464,34.29648 L25.212264,34.29648 C25.928904,34.29648 26.515464,33.7104 26.515464,32.99352 C26.515464,32.27688 25.928904,31.69056 25.212264,31.69056" id="Fill-43" fill="#009ADE"></path>
                <path d="M7.347984,28.56564 C7.347984,29.86404 8.400624,30.91668 9.699024,30.91668 C10.997424,30.91668 12.050064,29.86404 12.050064,28.56564 C12.050064,27.26724 10.997424,26.2146 9.699024,26.2146 C8.400624,26.2146 7.347984,27.26724 7.347984,28.56564" id="Fill-45" fill="#F8E000"></path>
                <path d="M28.73376,28.56564 C28.73376,29.86404 29.7864,30.91668 31.0848,30.91668 C32.3832,30.91668 33.43584,29.86404 33.43584,28.56564 C33.43584,27.26724 32.3832,26.2146 31.0848,26.2146 C29.7864,26.2146 28.73376,27.26724 28.73376,28.56564" id="Fill-47" fill="#F8E000"></path>
                <path d="M32.132664,4.729008 L8.651064,4.729008 C7.934424,4.729008 7.347864,4.142688 7.347864,3.425808 C7.347864,2.709168 7.934424,2.122848 8.651064,2.122848 L32.132664,2.122848 C32.849304,2.122848 33.435864,2.709168 33.435864,3.425808 C33.435864,4.142688 32.849304,4.729008 32.132664,4.729008" id="Fill-49" fill="#F8E000"></path>
            </g>
        </g>
    </g>
</svg>